<?xml version="1.0" encoding="utf-8"?>
<!-- Generator: Adobe Illustrator 21.0.2, SVG Export Plug-In . SVG Version: 6.00 Build 0)  -->
<svg version="1.1" id="Layer_1" xmlns="http://www.w3.org/2000/svg" xmlns:xlink="http://www.w3.org/1999/xlink" x="0px" y="0px"
	 viewBox="0 0 512 110" style="enable-background:new 0 0 512 110;" xml:space="preserve">
<style type="text/css">
	.st0{fill:#FFFFFF;}
	.st1{fill:#F9B9A4;}
	.st2{fill:#CCEBA9;}
	.st3{fill:#99DEF9;}
	.st4{fill:#FDE49D;}
</style>
<path class="st0" d="M512,49v-9h-11V26l-0.4,0.1l-10.4,3.2l-0.2,0.1V40h-17v-5.9c0-2.8,0.6-4.9,1.8-6.3c1.2-1.4,2.9-2.1,5-2.1
	c1.6,0,3.2,0.4,4.8,1.1L485,27v-8.9l-0.2-0.1c-1.5-0.5-3.6-0.8-6.1-0.8c-3.2,0-6.1,0.7-8.7,2.1c-2.5,1.4-4.5,3.4-5.9,5.9
	s-2.1,5.4-2.1,8.6V40h-8v9h8v38h11V49h17v24.1c0,9.9,4.6,15,13.8,15c1.5,0,3.1-0.2,4.7-0.5c1.6-0.4,2.8-0.7,3.4-1.1l0.1-0.1v-9.1
	l-0.4,0.3c-0.6,0.4-1.3,0.7-2.2,1c-0.9,0.3-1.6,0.4-2.2,0.4c-2.1,0-3.7-0.6-4.7-1.7c-1-1.2-1.5-3.2-1.5-6V49H512L512,49z
	 M429.1,79.4c-4.1,0-7.3-1.3-9.5-4c-2.3-2.7-3.4-6.5-3.4-11.3c0-5,1.1-8.9,3.4-11.6c2.3-2.7,5.4-4.1,9.4-4.1c3.9,0,7,1.3,9.2,3.9
	c2.2,2.6,3.3,6.5,3.3,11.5c0,5.1-1.1,9-3.1,11.6C436.3,78,433.2,79.4,429.1,79.4L429.1,79.4z M429.6,39.3c-7.7,0-13.9,2.3-18.3,6.7
	c-4.4,4.5-6.6,10.7-6.6,18.4c0,7.3,2.2,13.3,6.4,17.6c4.3,4.3,10.1,6.5,17.3,6.5c7.5,0,13.5-2.3,17.9-6.8s6.6-10.7,6.6-18.2
	s-2.1-13.4-6.2-17.7C442.7,41.5,436.9,39.3,429.6,39.3L429.6,39.3z M387.2,39c-5.3,0-9.7,1.4-13.1,4c-3.4,2.7-5.1,6.2-5.1,10.5
	c0,2.2,0.4,4.2,1.1,5.9s1.9,3.2,3.4,4.4c1.5,1.2,3.8,2.5,6.9,3.8c2.6,1.1,4.5,2,5.7,2.7s2,1.4,2.5,2.1s0.7,1.6,0.7,2.7
	c0,3.2-2.4,4.7-7.3,4.7c-1.8,0-3.9-0.4-6.2-1.1c-2.3-0.7-4.4-1.8-6.3-3.2l-0.5-0.3v10.9l0.2,0.1c1.6,0.7,3.6,1.4,6,1.8
	c2.4,0.5,4.5,0.7,6.4,0.7c5.8,0,10.4-1.4,13.8-4.1s5.1-6.3,5.1-10.8c0-3.2-0.9-5.9-2.8-8.2c-1.8-2.2-5-4.2-9.4-6
	c-3.5-1.4-5.8-2.6-6.7-3.5c-0.9-0.9-1.4-2.1-1.4-3.7c0-1.4,0.6-2.5,1.7-3.4c1.2-0.9,2.8-1.4,4.8-1.4c1.9,0,3.8,0.3,5.7,0.9
	c1.9,0.6,3.6,1.4,5,2.3l0.5,0.3v-10l-0.2-0.1c-1.3-0.6-3-1-5.1-1.4C390.7,39.2,388.8,39,387.2,39L387.2,39z M339.6,79.4
	c-4.1,0-7.3-1.3-9.5-4c-2.3-2.7-3.4-6.5-3.4-11.3c0-5,1.1-8.9,3.4-11.6c2.3-2.7,5.4-4.1,9.4-4.1c3.9,0,7,1.3,9.2,3.9
	c2.2,2.6,3.3,6.5,3.3,11.5c0,5.1-1.1,9-3.1,11.6C346.8,78,343.7,79.4,339.6,79.4L339.6,79.4z M340.1,39.3c-7.7,0-13.9,2.3-18.3,6.7
	c-4.4,4.5-6.6,10.7-6.6,18.4c0,7.4,2.2,13.3,6.4,17.6c4.3,4.3,10.1,6.5,17.3,6.5c7.5,0,13.5-2.3,17.9-6.8s6.6-10.7,6.6-18.2
	s-2.1-13.4-6.2-17.7C353.2,41.5,347.4,39.3,340.1,39.3L340.1,39.3z M298,48v-8h-11v47h11V62.9c0-4.1,0.9-7.5,2.7-10
	c1.8-2.5,4.1-3.8,7-3.8c1,0,2.1,0.2,3.3,0.5c1.2,0.3,2,0.7,2.5,1l0.5,0.3V39.8l-0.2-0.1c-1-0.4-2.4-0.7-4.3-0.7
	c-2.7,0-5.2,0.9-7.3,2.7C300.4,43.3,299,45.4,298,48L298,48L298,48z M267.6,39.3c-5.1,0-9.6,1.1-13.4,3.2c-3.8,2.1-6.8,5.2-8.9,9.1
	c-2,3.9-3,8.4-3,13.5c0,4.4,1,8.5,3,12.1s4.7,6.4,8.3,8.4c3.5,1.9,7.6,2.9,12.1,2.9c5.2,0,9.7-1,13.3-3.1l0.1-0.1V75.2l-0.5,0.3
	c-1.6,1.2-3.4,2.1-5.4,2.8c-2,0.7-3.7,1-5.3,1c-4.3,0-7.8-1.4-10.3-4c-2.5-2.7-3.8-6.4-3.8-11.2s1.3-8.6,4-11.5
	c2.6-2.8,6.1-4.3,10.4-4.3c3.6,0,7.2,1.2,10.5,3.7l0.5,0.3V41.8l-0.1-0.1c-1.3-0.7-3-1.3-5.1-1.7C271.6,39.5,269.5,39.3,267.6,39.3
	L267.6,39.3z M235,40h-11v47h11V40L235,40z M229.2,20.4c-1.8,0-3.4,0.6-4.7,1.8c-1.3,1.2-2,2.8-2,4.6c0,1.8,0.7,3.3,1.9,4.5
	c1.3,1.2,2.9,1.8,4.7,1.8s3.4-0.6,4.7-1.8s2-2.7,2-4.5s-0.6-3.3-1.9-4.6C232.7,21.1,231.1,20.4,229.2,20.4L229.2,20.4z M202,37v50
	h11V22h-15.6l-19.9,48.3L158.3,22H142v65h11V37h0.4l21.1,50h7.3l19.8-50H202L202,37z"/>
<path class="st1" d="M52,52H0V0h52V52L52,52z"/>
<path class="st2" d="M109,52H57V0h52V52L109,52z"/>
<path class="st3" d="M52,109H0V57h52V109L52,109z"/>
<path class="st4" d="M109,109H57V57h52V109L109,109z"/>
</svg>
